HIERARCHY
ROOT hips
{
  OFFSET 0 10.6860622 2.3727825e-15
  CHANNELS 6 Xposition Yposition Zposition Yrotation Xrotation Zrotation
  JOINT leftUpperLeg
  {
    OFFSET 0.6642549969 -0.9402397400000004 0
    CHANNELS 3 Yrotation Xrotation Zrotation
    JOINT leftLowerLeg
    {
      OFFSET 0 -3.997221335632195 0
      CHANNELS 3 Yrotation Xrotation Zrotation
      JOINT leftFoot
      {
        OFFSET -0.13777839790000004 -4.6145792000000005 -0.22186036399999998
        CHANNELS 3 Yrotation Xrotation Zrotation
        JOINT leftToes
        {
          OFFSET -0.03777410834999995 -0.9130806927000008 0.85230013
          CHANNELS 3 Yrotation Xrotation Zrotation
          End Site
          {
            OFFSET -0.03777410834999995 -0.9130806927000008 0.85230013
          }
        }
      }
    }
  }
  JOINT rightUpperLeg
  {
    OFFSET -0.6642778626 -0.9402397400000004 0
    CHANNELS 3 Yrotation Xrotation Zrotation
    JOINT rightLowerLeg
    {
      OFFSET 0 -3.997221452859387 0
      CHANNELS 3 Yrotation Xrotation Zrotation
      JOINT rightFoot
      {
        OFFSET 0.1377926176 -4.6145792000000005 -0.22185782299999995
        CHANNELS 3 Yrotation Xrotation Zrotation
        JOINT rightToes
        {
          OFFSET 0.037780746850000047 -0.9130806927000008 0.85230167
          CHANNELS 3 Yrotation Xrotation Zrotation
          End Site
          {
            OFFSET 0.037780746850000047 -0.9130806927000008 0.85230167
          }
        }
      }
    }
  }
  JOINT spine
  {
    OFFSET 0 0.13988381660000015 0
    CHANNELS 3 Yrotation Xrotation Zrotation
    JOINT chest
    {
      OFFSET 0 0.6191039003973773 0
      CHANNELS 3 Yrotation Xrotation Zrotation
      JOINT upperChest
      {
        OFFSET 0 0.9855186130586943 0
        CHANNELS 3 Yrotation Xrotation Zrotation
        JOINT leftShoulder
        {
          OFFSET 0.1807663869 1.5087829790000005 0
          CHANNELS 3 Yrotation Xrotation Zrotation
          JOINT leftUpperArm
          {
            OFFSET 0.5985063006419806 0 0
            CHANNELS 3 Yrotation Xrotation Zrotation
            JOINT leftLowerArm
            {
              OFFSET 2.2993332369501065 0 0
              CHANNELS 3 Yrotation Xrotation Zrotation
              JOINT leftHand
              {
                OFFSET 2.395047042602395 0 0
                CHANNELS 3 Yrotation Xrotation Zrotation
                JOINT leftIndexProximal
                {
                  OFFSET 0.5766295810000004 0.04556643899499946 0.17265095988184
                  CHANNELS 3 Yrotation Xrotation Zrotation
                  JOINT leftIndexIntermediate
                  {
                    OFFSET 0.2957229000000008 -0.019352197700001517 -0.007932640616999987
                    CHANNELS 3 Yrotation Xrotation Zrotation
                    JOINT leftIndexDistal
                    {
                      OFFSET 0.19008243099999922 -0.012484908149998475 -0.002786250786000012
                      CHANNELS 3 Yrotation Xrotation Zrotation
                      End Site
                      {
                        OFFSET 0.19008243099999922 -0.012484908149998475 -0.002786250786000012
                      }
                    }
                  }
                }
                JOINT leftMiddleProximal
                {
                  OFFSET 0.5834975091000001 0.0524350405149987 0.02204081888183999
                  CHANNELS 3 Yrotation Xrotation Zrotation
                  JOINT leftMiddleIntermediate
                  {
                    OFFSET 0.33880573540000003 -0.019871473270000717 -0.00000971183179999946
                    CHANNELS 3 Yrotation Xrotation Zrotation
                    JOINT leftMiddleDistal
                    {
                      OFFSET 0.20676022730000088 -0.012221336379999448 0.0001471936708000235
                      CHANNELS 3 Yrotation Xrotation Zrotation
                      End Site
                      {
                        OFFSET 0.20676022730000088 -0.012221336379999448 0.0001471936708000235
                      }
                    }
                  }
                }
                JOINT leftLittleProximal
                {
                  OFFSET 0.5344154683999995 -0.012880921405001189 -0.24414037221816004
                  CHANNELS 3 Yrotation Xrotation Zrotation
                  JOINT leftLittleIntermediate
                  {
                    OFFSET 0.21758961730000093 -0.011650919939999227 0.011893592810000034
                    CHANNELS 3 Yrotation Xrotation Zrotation
                    JOINT leftLittleDistal
                    {
                      OFFSET 0.1475273964999999 -0.008152365682999818 0.006001092492999946
                      CHANNELS 3 Yrotation Xrotation Zrotation
                      End Site
                      {
                        OFFSET 0.1475273964999999 -0.008152365682999818 0.006001092492999946
                      }
                    }
                  }
                }
                JOINT leftRingProximal
                {
                  OFFSET 0.5799399463000003 0.026911854694997794 -0.12150566991816003
                  CHANNELS 3 Yrotation Xrotation Zrotation
                  JOINT leftRingIntermediate
                  {
                    OFFSET 0.26167887460000006 -0.013480186499999602 0.010996293000000053
                    CHANNELS 3 Yrotation Xrotation Zrotation
                    JOINT leftRingDistal
                    {
                      OFFSET 0.17667108799999987 -0.008990287899999228 0.0055541023999999065
                      CHANNELS 3 Yrotation Xrotation Zrotation
                      End Site
                      {
                        OFFSET 0.17667108799999987 -0.008990287899999228 0.0055541023999999065
                      }
                    }
                  }
                }
                JOINT leftThumbProximal
                {
                  OFFSET 0.11018806699999972 -0.09448718900500053 0.17047963138184
                  CHANNELS 3 Yrotation Xrotation Zrotation
                  JOINT leftThumbIntermediate
                  {
                    OFFSET 0.31062601459999983 -0.08126270900000132 0.15443142000000007
                    CHANNELS 3 Yrotation Xrotation Zrotation
                    JOINT leftThumbDistal
                    {
                      OFFSET 0.21627175790000086 -0.08833193599999878 0.018771167799999988
                      CHANNELS 3 Yrotation Xrotation Zrotation
                      End Site
                      {
                        OFFSET 0.21627175790000086 -0.08833193599999878 0.018771167799999988
                      }
                    }
                  }
                }
              }
            }
          }
        }
        JOINT neck
        {
          OFFSET 0 1.5463305265074576 0
          CHANNELS 3 Yrotation Xrotation Zrotation
          JOINT head
          {
            OFFSET 0 0.8456443600000344 0
            CHANNELS 3 Yrotation Xrotation Zrotation
            JOINT leftEye
            {
              OFFSET 0.30408573140000006 0.5104519199999995 0.1276382305
              CHANNELS 3 Yrotation Xrotation Zrotation
              End Site
              {
                OFFSET 0.30408573140000006 0.5104519199999995 0.1276382305
              }
            }
            JOINT rightEye
            {
              OFFSET -0.30409491089999996 0.5104519199999995 0.1276379445
              CHANNELS 3 Yrotation Xrotation Zrotation
              End Site
              {
                OFFSET -0.30409491089999996 0.5104519199999995 0.1276379445
              }
            }
            JOINT jaw
            {
              OFFSET -3.155239131000001e-7 -0.11984121820000082 0.60178107
              CHANNELS 3 Yrotation Xrotation Zrotation
              End Site
              {
                OFFSET -3.155239131000001e-7 -0.11984121820000082 0.60178107
              }
            }
          }
        }
        JOINT rightShoulder
        {
          OFFSET -0.1807303465 1.5087829790000005 0
          CHANNELS 3 Yrotation Xrotation Zrotation
          JOINT rightUpperArm
          {
            OFFSET -0.5985063796536958 0 0
            CHANNELS 3 Yrotation Xrotation Zrotation
            JOINT rightLowerArm
            {
              OFFSET -2.2993322059002854 0 0
              CHANNELS 3 Yrotation Xrotation Zrotation
              JOINT rightHand
              {
                OFFSET -2.395045314457259 0 0
                CHANNELS 3 Yrotation Xrotation Zrotation
                JOINT rightIndexProximal
                {
                  OFFSET -0.5764487688300002 0.0441371204405987 0.17361932004999997
                  CHANNELS 3 Yrotation Xrotation Zrotation
                  JOINT rightIndexIntermediate
                  {
                    OFFSET -0.29573011380000047 -0.01934826376999843 -0.007698921482999974
                    CHANNELS 3 Yrotation Xrotation Zrotation
                    JOINT rightIndexDistal
                    {
                      OFFSET -0.19008373999999884 -0.012503266380000655 -0.0026365778999999897
                      CHANNELS 3 Yrotation Xrotation Zrotation
                      End Site
                      {
                        OFFSET -0.19008373999999884 -0.012503266380000655 -0.0026365778999999897
                      }
                    }
                  }
                }
                JOINT rightMiddleProximal
                {
                  OFFSET -0.5834852037300005 0.05211639405060153 0.02307162440000001
                  CHANNELS 3 Yrotation Xrotation Zrotation
                  JOINT rightMiddleIntermediate
                  {
                    OFFSET -0.33880114510000003 -0.019952774050000954 0.0002455003561999819
                    CHANNELS 3 Yrotation Xrotation Zrotation
                    JOINT rightMiddleDistal
                    {
                      OFFSET -0.20675694929999955 -0.012273788999999091 0.00030209124000002766
                      CHANNELS 3 Yrotation Xrotation Zrotation
                      End Site
                      {
                        OFFSET -0.20675694929999955 -0.012273788999999091 0.00030209124000002766
                      }
                    }
                  }
                }
                JOINT rightLittleProximal
                {
                  OFFSET -0.5346811737299992 -0.011214256288399227 -0.24363941305000003
                  CHANNELS 3 Yrotation Xrotation Zrotation
                  JOINT rightLittleIntermediate
                  {
                    OFFSET -0.21757715980000092 -0.011771559690000988 0.01201554387
                    CHANNELS 3 Yrotation Xrotation Zrotation
                    JOINT rightLittleDistal
                    {
                      OFFSET -0.1475201849000004 -0.00822055339600003 0.006082065407000015
                      CHANNELS 3 Yrotation Xrotation Zrotation
                      End Site
                      {
                        OFFSET -0.1475201849000004 -0.00822055339600003 0.006082065407000015
                      }
                    }
                  }
                }
                JOINT rightRingProximal
                {
                  OFFSET -0.5800810755299999 0.027657985680600072 -0.12066365025000003
                  CHANNELS 3 Yrotation Xrotation Zrotation
                  JOINT rightRingIntermediate
                  {
                    OFFSET -0.26166445029999974 -0.013623118409999302 0.011164098990000045
                    CHANNELS 3 Yrotation Xrotation Zrotation
                    JOINT rightRingDistal
                    {
                      OFFSET -0.17666387530000027 -0.009072900100000503 0.005668185599999959
                      CHANNELS 3 Yrotation Xrotation Zrotation
                      End Site
                      {
                        OFFSET -0.17666387530000027 -0.009072900100000503 0.005668185599999959
                      }
                    }
                  }
                }
                JOINT rightThumbProximal
                {
                  OFFSET -0.10997596379000074 -0.09577489355940072 0.16989765924999997
                  CHANNELS 3 Yrotation Xrotation Zrotation
                  JOINT rightThumbIntermediate
                  {
                    OFFSET -0.31036620999999986 -0.08229339117999834 0.15440884469999996
                    CHANNELS 3 Yrotation Xrotation Zrotation
                    JOINT rightThumbDistal
                    {
                      OFFSET -0.21631306399999906 -0.08825326400000111 0.018656797720000014
                      CHANNELS 3 Yrotation Xrotation Zrotation
                      End Site
                      {
                        OFFSET -0.21631306399999906 -0.08825326400000111 0.018656797720000014
                      }
                    }
                  }
                }
              }
            }
          }
        }
      }
    }
  }
}
MOTION
Frames: 4
Frame Time: 0.03333333333333333
0.1735694259405136 -0.11573253386230498 0.3928367495536804 -27.242028303351454 -4.164587463804408 -2.8499949680499648 12.78771406604627 -7.559791849371455 7.6720653462399095 10.779960590980439 20.344599571805418 7.531519287277007 17.26348344259072 -4.686608710652064 -11.635368491922733 0.000004126059631999755 -4.418171430343673 7.278075606423447e-7 -12.004026744234109 -2.4199483057536004 -1.0249217986948682 -5.371248099083849 12.207808317478333 -0.853720046255387 17.57264652225315 -4.851037204545663 1.9275337146438836 0.000003133026499322827 -7.437687577635378 -9.323693119451789e-7 -2.8434863119738054 1.8408509691983697 5.316549102788274 -17.254667128218387 -2.9077577567402018 12.16487258771684 0 0 0 -41.20787860730796 1.0894267079037716 -5.628067635710488 -82.51674473427516 -12.734743712796982 -30.799387609585363 -62.971797831695085 0.40380396647749434 0.6593138506829958 -16.34554564185704 -1.7551062006385056 -14.819122284610389 -6.991123017460892 2.599466182712185 0.2203480733502979 1.740858303201332 0.30469436074309264 -19.8554633090829 1.001328417950649 0.09875925488635191 -11.267192650908768 -3.2562205551469323 -1.3024528341444868 -12.744907148044069 1.9489233006536866 0.38498592252205693 -22.34770863694156 1.7719778895970546 0.31604550129091846 -20.225529778539702 1.4843375741125486 -3.212607956927135 -17.646198948413893 1.7892967147804517 0.32247318261422275 -20.432196876153718 1.4572885754293465 0.21152211426095333 -16.51911059140532 1.7487641861522918 -0.22376320893239796 -13.475645607292158 2.0573206132074584 0.4310085316934763 -23.663838719217054 1.7563044862992727 0.3102966639685577 -20.039313142103868 0.5110631280229032 -15.523833066880716 -38.015085612729145 4.570360989026825 -7.404373468531776 64.22586215933083 10.542608103560237 -13.583396048184031 0.5366530717178961 3.4931905072513767 10.320672799636068 -2.3390971616929295 14.770234354631459 8.3164259679036 10.40965972800087 0 0 0 0 0 0 0 0 0 14.727481014149074 3.2574991969330407 3.47517484281914 33.94188027995814 1.451102776649469 63.03466306583359 94.98009089304779 0.8043669474263648 -0.7373248823391587 -7.115314237101023 -83.16622757452417 40.937495219236936 10.207645874637615 -10.058244879477336 36.19661408965668 -2.3691474596775675 0.7959444495003805 37.13628734764261 -1.1213253236610894 0.16365456993125893 16.606739665147447 7.358707481563127 -9.209118855776829 39.95524025432298 -1.5772647163576523 0.3310045211011669 23.70244128086395 -1.622603270601326 0.35125033447143933 24.42733565709191 -4.713871975785487 -9.654768136840335 47.25964392191312 -0.000010893384110238942 0.00000214045386241906 0.000017672507719174184 -1.730602419129938 0.4022959514629439 26.17126671835721 -0.9090964350385331 -2.7168352489402907 43.490338571930906 -1.6202534064700296 0.35019963959309713 24.389650485137746 -1.3227540590939315 0.22970638716178637 19.702194704455245 -7.135121077529382 -20.350467439501962 24.28079531482194 -14.354922027574329 1.5807172825209925 -17.301227309061325 -46.50538285407545 -8.36512377116401 -15.25291018201494
0.17104598879814148 -0.11420188658447294 0.3861328363418579 -27.074926384482957 -4.183651999383737 -3.0307509308007026 12.872123596659033 -7.589799178783119 7.890177539921828 10.76901793937035 20.191132333914858 7.513656096206104 16.980246067034184 -4.609045294233842 -11.552068673704813 -0.0000024720577304033264 -4.420930064901782 -3.501906357719162e-7 -11.904583966234263 -2.2402296954160734 -0.7789408252534561 -5.3418197636299665 11.964225765605901 -0.8551259319075964 17.256357040070487 -4.685279210041854 1.988199903401697 0.000001341218064239395 -7.426842328153068 0.0000016851763412201168 -2.7862465010760897 1.8585469648294772 5.284421084693613 -17.009178921183533 -2.8593438388968435 12.004173419559207 0 0 0 -39.318122915213806 1.1995764287630684 -5.05076577966253 -83.49406589768084 -12.98248763241809 -30.291256794849218 -62.54342593724973 0.3988850690596948 0.656784105099798 -16.61038705999445 -2.412149621455646 -13.673549579375148 -6.950535502627581 2.599135859335824 0.21244135340364004 1.7404777022299192 0.3045509781048841 -19.850923861451644 1.0003760924840592 0.0985781945739101 -11.256351806753965 -3.202065999375919 -1.298491798254324 -12.80903776043072 1.947991403343687 0.38459026955591635 -22.33656874240614 1.7718876459057957 0.3160120968888721 -20.22450169892968 1.5433285762859525 -3.1802651445853174 -17.678776289416906 1.788596310918382 0.3221995971919768 -20.423929594061956 1.4573379719337232 0.21154417912400095 -16.51969088908456 1.7371734741754363 -0.2250801248632336 -13.432743782101467 2.0575480355463305 0.431101035349823 -23.666443098140373 1.7567333022991436 0.31044693033500037 -20.044268954259366 0.4695499298022667 -15.533624696032359 -37.85579837843941 4.99637097525429 -7.703156964314245 64.0024053308767 10.528808068864338 -13.592949962821674 0.5651121522589022 3.457394201057132 10.047238095031986 -2.163526072637013 14.794287483248464 8.112221265273803 10.114811555935562 0 0 0 0 0 0 0 0 0 15.285715476105878 3.21677880106105 3.934303771223861 34.759484663621116 0.8990434667101374 62.55025188442216 94.90393574265401 0.8033927491725895 -0.7374119968349346 2.2520765679691923 -83.65238762617813 31.18627211936174 9.89373645534295 -9.85457216034472 36.28211463997925 -2.3516610386834866 0.7827861753143026 36.81680640338431 -1.125794088531035 0.16499466656202325 16.674912625432405 7.258686921624655 -9.172737790871976 40.09071219376869 -1.5652375401894443 0.32574132033788555 23.510917401760462 -1.6356371032909816 0.3571966880749392 24.636493257219463 -4.677182959691354 -9.454642887648967 47.5724938500933 2.8607590523370694e-9 6.361110121230362e-15 -3.673552149328957e-11 -1.7206643342417525 0.3974177702604155 26.009692986770126 -1.2911999016598052 -2.384384701912815 43.713964848057905 -1.6171277226523895 0.3487731707369254 24.33984523161893 -1.335086811747853 0.2341354275975415 19.893671148952723 -6.927441170727456 -20.012853763579372 24.485582918499542 -14.176003867032831 1.6158570162850425 -17.241610112633705 -44.46061106557943 -8.510150581099767 -14.975289194997453
0.1692207008600235 -0.11302695982666044 0.37816110253334045 -26.77557949740378 -4.200350809538822 -3.1836393116021835 12.952720758345256 -7.641900981511148 8.074669960483462 10.756711850640075 20.026158650118138 7.490519188563667 16.575450189084265 -4.537665807027578 -11.4277573358427 -0.0000033619581892218396 -4.428396369635929 9.577771946924029e-7 -11.824656304365021 -2.073154357321448 -0.5619267417598262 -5.316135813682834 11.749450975476659 -0.8597820936781106 16.832622545586712 -4.552222317166459 2.035050179782627 -0.0000060479649091242945 -7.415934495048516 -7.018984994734957e-7 -2.7069357245734342 1.8691722498592287 5.2532359076268325 -16.681807724696395 -2.835376356836162 11.853064319848164 0 0 0 -37.17579756298548 1.2719899731328053 -4.426095464675987 -84.64806340719444 -13.331678423014957 -29.724241393127397 -61.63324708503288 0.38848708787853453 0.6512798830928487 -16.750303417273834 -2.9318759427249557 -12.867853778870886 -6.828525365498731 2.612226645301578 0.10745559540212012 1.7396947358775985 0.3042843835210101 -19.84192125413009 0.999364972230672 0.09835748709031267 -11.244584690197138 -3.0905705429260593 -1.2866645572785114 -12.913662433864372 1.9472421310345347 0.3842914687340439 -22.327536307408227 1.7718054026392087 0.3159807469110109 -20.22352877177079 1.6106540551712245 -3.1460841058929065 -17.743670782111668 1.7871679821049358 0.32165269317798667 -20.406771070360872 1.456822535277827 0.21140813470288025 -16.513933084362495 1.7446088374341648 -0.22426385762096934 -13.460633770829064 2.056316149660138 0.4305645034861746 -23.651592387203152 1.7556968861431343 0.31007091757227234 -20.031637546700853 0.5970714670514116 -15.482635334643858 -37.82295753325269 5.468484483056819 -8.027638727069064 63.758579634268344 10.528799615100187 -13.599794375674637 0.6124919819808328 3.4177241973110655 9.74705739261148 -2.101489744192604 14.737144390211055 7.770118369026547 9.698923420726475 0 0 0 0 0 0 0 0 0 16.03649294888465 3.2120085197351878 4.248284913945497 35.529218958415136 0.139532178163668 62.185170129313896 94.85127801863361 0.8027083290099787 -0.7374702426331823 13.656626988973304 -84.20265186858153 19.432442888962353 9.55489870053533 -9.634340602340972 36.37588232094103 -2.3248820224873037 0.7629141731803121 36.33042765869407 -1.1228467445299506 0.16411130067968893 16.6299859499597 7.118577844961424 -9.112580776331903 40.25753013975332 -1.564395046851225 0.32536271897514324 23.497302145867135 -1.6528324129284675 0.36513488630830715 24.91313825979446 -4.667960319948975 -9.137308217009611 47.69190323438691 2.8607590523370694e-9 6.361110121230362e-15 -3.673552149328957e-11 -1.698307111411388 0.3866042871556401 25.64714198558662 -1.6672327930983628 -2.0410240777130406 43.83587739137658 -1.6234793611731797 0.351647480090403 24.441326223213853 -1.353532220905454 0.24087034546984432 20.180411353547402 -6.683845317855907 -19.600311968513395 24.79622497152607 -14.146138057390104 1.689034937198375 -17.21074794590363 -42.258978231556995 -8.693390233595604 -14.670151833684859
0.16867001354694366 -0.11246619932861357 0.3740057647228241 -26.56769285138795 -4.208192049921877 -3.242622537356683 12.990419578620505 -7.675136889194415 8.149926337896789 10.750492053477595 19.943267225114003 7.470885758290415 16.317728597796098 -4.503617256514504 -11.352046613371499 0.000003422585032366219 -4.432464805264785 -0.0000022407787201688794 -11.802875474463633 -1.991346171014011 -0.4769051858319859 -5.303225941143543 11.649761054642466 -0.8576591993050536 16.58251698718525 -4.498531008139286 2.0516269993334233 -0.000017016531691150564 -7.410525019567411 0.00000215138972728325 -2.6560651806371585 1.8682270466409898 5.240429137253873 -16.47813903233065 -2.8437497777480925 11.786082769688617 0 0 0 -36.124347101904625 1.2838848246986152 -4.1587109796475 -85.19674827771125 -13.524899550723894 -29.423933603681167 -61.0573251073749 0.381973127967627 0.6477091549093112 -16.685006453022968 -3.189121782962255 -12.71821435977386 -6.739738275495052 2.6211625930951366 0.0034680918324014477 1.739193276295025 0.3040796617238345 -19.83549298729553 0.9986541811929811 0.09823621103342962 -11.236675867375473 -3.016261432178617 -1.2790845624313314 -12.987752595907411 1.9465209203555982 0.3839915740005717 -22.3188419531781 1.7713902383636386 0.3158231432365069 -20.218668606000097 1.6437243406722537 -3.130156553392569 -17.790777851076736 1.7861514046473737 0.3212711837555897 -20.394271614582095 1.4562685842781475 0.2112280939606995 -16.507414100622558 1.7521632416882071 -0.2238597794726898 -13.502539699830926 2.0551413407401666 0.43004536778831404 -23.63711772853333 1.7545667064128116 0.30964685267303205 -20.01829260496712 0.7112650133774584 -15.4388204705334 -37.846180244500715 5.730107525911347 -8.204942932556117 63.62725449785783 10.532172263174255 -13.603471396794035 0.6470409130206849 3.3907078520611913 9.60841825758384 -2.140222955952471 14.62700400721328 7.552462592190493 9.446770202897223 0 0 0 0 0 0 0 0 0 16.4284058945496 3.2375379301942493 4.258570620707238 35.88616570932411 -0.34856511291907694 62.132815315529996 94.82231406792987 0.8023370611381184 -0.7374923437648042 21.0597620083329 -84.4099809185996 11.818210908491954 9.400903011843788 -9.509138450849905 36.3537236523577 -2.3086725812911872 0.7510387461533488 36.03736959675816 -1.120377478364997 0.16337505130532307 16.592356052164295 7.036451884296273 -9.051085208544057 40.28336531562728 -1.5644507357148414 0.3253995919190788 23.49821360599204 -1.6598215229707687 0.36837761173133554 25.025395623180966 -4.66032675162459 -8.950528317603732 47.69824172252149 2.8607590523370694e-9 6.361110121230362e-15 -3.673552149328957e-11 -1.6802599838230807 0.3780026196667969 25.3551133941604 -1.8391246268190224 -1.8769831161088113 43.83372215831306 -1.6259140175495095 0.3527328870241474 24.480287807802892 -1.3610135630657727 0.24364785605183303 20.29680029223882 -6.545861028956368 -19.35027210493839 25.011604720146657 -14.184055793427131 1.740237753115 -17.205085800035548 -40.99189982185615 -8.819261537067394 -14.485508155701664
